<?xml version="1.0" encoding="utf-8"?>
<!-- Generator: Adobe Illustrator 16.0.0, SVG Export Plug-In . SVG Version: 6.00 Build 0)  -->
<!DOCTYPE svg PUBLIC "-//W3C//DTD SVG 1.1//EN" "http://www.w3.org/Graphics/SVG/1.1/DTD/svg11.dtd">
<svg version="1.1" id="github" xmlns="http://www.w3.org/2000/svg" xmlns:xlink="http://www.w3.org/1999/xlink" x="0px" y="0px"
	 width="1024px" height="768px" viewBox="0 0 1024 768" enable-background="new 0 0 1024 768" xml:space="preserve">
<circle fill="#BE9553" cx="512" cy="384" r="368.64"/>
<path fill="#F7F7F7" d="M512,195.84c-103.918,0-188.16,84.242-188.16,188.16S408.082,572.16,512,572.16S700.16,487.918,700.16,384
	S615.918,195.84,512,195.84z M623.74,495.74c-14.523,14.522-31.427,25.92-50.238,33.88c-4.781,2.021-9.635,3.798-14.554,5.326
	v-28.201c0-14.822-5.085-25.724-15.253-32.705c6.371-0.614,12.219-1.471,17.549-2.572c5.33-1.103,10.963-2.696,16.903-4.781
	s11.271-4.565,15.986-7.441c4.716-2.88,9.251-6.616,13.598-11.209s7.995-9.8,10.933-15.617c2.938-5.818,5.268-12.803,6.98-20.947
	s2.573-17.119,2.573-26.919c0-18.988-6.187-35.155-18.559-48.511c5.633-14.699,5.022-30.685-1.836-47.958l-4.597-0.549
	c-3.183-0.369-8.912,0.979-17.18,4.043c-8.268,3.064-17.549,8.083-27.836,15.069c-14.581-4.044-29.707-6.064-45.389-6.064
	c-15.802,0-30.87,2.02-45.205,6.064c-6.489-4.413-12.648-8.053-18.467-10.933c-5.817-2.88-10.472-4.838-13.966-5.883
	c-3.49-1.041-6.735-1.686-9.738-1.932c-3.003-0.246-4.931-0.303-5.787-0.184s-1.471,0.246-1.835,0.369
	c-6.862,17.395-7.473,33.385-1.836,47.958c-12.372,13.352-18.559,29.522-18.559,48.511c0,9.8,0.856,18.773,2.573,26.919
	c1.716,8.145,4.043,15.129,6.98,20.947c2.938,5.817,6.586,11.024,10.933,15.617s8.882,8.329,13.598,11.209
	c4.716,2.884,10.045,5.36,15.986,7.441c5.94,2.085,11.573,3.675,16.903,4.781c5.33,1.102,11.178,1.962,17.549,2.572
	c-10.046,6.862-15.068,17.764-15.068,32.705v28.751c-5.549-1.651-11.017-3.603-16.389-5.876
	c-18.812-7.96-35.716-19.357-50.239-33.88c-14.523-14.523-25.92-31.427-33.88-50.239c-8.229-19.461-12.403-40.15-12.403-61.501
	s4.174-42.04,12.407-61.501c7.96-18.812,19.357-35.716,33.88-50.239c14.523-14.523,31.427-25.92,50.238-33.88
	c19.462-8.233,40.151-12.407,61.502-12.407s42.04,4.174,61.502,12.407c18.815,7.96,35.715,19.357,50.238,33.88
	c14.522,14.523,25.92,31.427,33.88,50.239c8.229,19.465,12.403,40.154,12.403,61.501s-4.174,42.04-12.407,61.501
	C649.656,464.313,638.259,481.217,623.74,495.74L623.74,495.74z"/>
</svg>
