<?xml version="1.0" encoding="utf-8"?>
<!-- Generator: Adobe Illustrator 16.0.0, SVG Export Plug-In . SVG Version: 6.00 Build 0)  -->
<!DOCTYPE svg PUBLIC "-//W3C//DTD SVG 1.1//EN" "http://www.w3.org/Graphics/SVG/1.1/DTD/svg11.dtd">
<svg version="1.1" id="linkedin" xmlns="http://www.w3.org/2000/svg" xmlns:xlink="http://www.w3.org/1999/xlink" x="0px" y="0px"
	 width="1024px" height="768px" viewBox="0 0 1024 768" enable-background="new 0 0 1024 768" xml:space="preserve">
<circle fill="#BE9553" cx="512" cy="384" r="368.64"/>
<path fill="#F7F7F7" d="M636.95,195.84h-249.9c-34.764,0-63.21,28.447-63.21,63.21v249.9c0,34.763,28.447,63.21,63.21,63.21h249.9
	c34.763,0,63.21-28.447,63.21-63.21v-249.9C700.16,224.287,671.713,195.84,636.95,195.84z M464.96,501.6h-47.04V336.96h47.04V501.6z
	 M441.44,313.44c-12.991,0-23.521-10.53-23.521-23.521s10.529-23.52,23.521-23.52c12.99,0,23.52,10.529,23.52,23.52
	S454.431,313.44,441.44,313.44z M629.6,501.6h-47.04v-94.08c0-12.99-10.528-23.52-23.52-23.52s-23.521,10.529-23.521,23.52v94.08
	H488.48V336.96h47.039v29.207c9.7-13.325,24.534-29.207,41.161-29.207c29.23,0,52.923,26.327,52.923,58.798L629.6,501.6L629.6,501.6
	z"/>
</svg>
