<?xml version="1.0" encoding="utf-8"?>
<!-- Generator: Adobe Illustrator 16.0.0, SVG Export Plug-In . SVG Version: 6.00 Build 0)  -->
<!DOCTYPE svg PUBLIC "-//W3C//DTD SVG 1.1//EN" "http://www.w3.org/Graphics/SVG/1.1/DTD/svg11.dtd">
<svg version="1.1" id="twitter" xmlns="http://www.w3.org/2000/svg" xmlns:xlink="http://www.w3.org/1999/xlink" x="0px" y="0px"
	 width="1024px" height="768px" viewBox="0 0 1024 768" enable-background="new 0 0 1024 768" xml:space="preserve">
<circle fill="#BE9553" cx="512" cy="384" r="368.64"/>
<path fill="#F7F7F7" d="M700.164,266.604c-13.848,6.175-28.724,10.349-44.341,12.227c15.937-9.611,28.178-24.83,33.949-42.966
	c-14.918,8.901-31.438,15.36-49.028,18.847c-14.082-15.095-34.149-24.526-56.356-24.526c-42.64,0-77.211,34.767-77.211,77.656
	c0,6.087,0.68,12.012,1.997,17.699c-64.166-3.245-121.056-34.157-159.137-81.143c-6.644,11.474-10.453,24.814-10.453,39.045
	c0,26.945,13.632,50.718,34.349,64.642c-12.656-0.398-24.564-3.894-34.967-9.711c-0.008,0.326-0.008,0.653-0.008,0.979
	c0,37.628,26.615,69.013,61.936,76.15c-6.482,1.778-13.298,2.727-20.341,2.727c-4.977,0-9.811-0.487-14.526-1.394
	c9.826,30.851,38.339,53.307,72.123,53.933c-26.423,20.828-59.716,33.243-95.889,33.243c-6.232,0-12.376-0.369-18.417-1.083
	c34.168,22.034,74.753,34.894,118.349,34.894c142.011,0,219.671-118.337,219.671-220.965c0-3.367-0.076-6.712-0.227-10.049
	C676.721,295.853,689.812,282.171,700.164,266.604z"/>
</svg>
